<svg width="400" height="587" viewBox="0 0 400 587" fill="none" xmlns="http://www.w3.org/2000/svg">
<path d="M0.0255635 197.909H72.0213V220.692H46.4204V276.766H25.6201V220.692H0.019165V197.909H0.0255635Z" fill="#E7393A"/>
<path d="M102.806 197.909V225.95H133.201V197.909H154.002V276.759H133.201V248.726H102.806V276.759H82.0059V197.909H102.806Z" fill="#E7393A"/>
<path d="M235.726 197.909V276.759H163.731V197.909H235.726ZM184.531 220.692V253.984H214.926V220.692H184.531Z" fill="#E7393A"/>
<path d="M245.8 197.832H317.796V262.665H309.096L318.493 276.682H293.595L283.7 262.665H266.601V276.682H245.8V197.832ZM266.601 239.778L296.996 239.89V220.608H266.601V239.778Z" fill="#E7393A"/>
<path d="M341.959 75.2513L316.121 0L279.967 81.1185H0V151.217H20.8003V103.894H281.399H292.982L294.471 100.554L313.641 57.5307L331.412 109.271L379.155 76.7636V197.832V239.89L346.408 197.832H327.806V276.682H348.607V235.724L381.201 276.682H399.968V197.832V35.7633L341.959 75.2513Z" fill="#E7393A"/>
<path d="M154.015 367.946H102.819V360.223H154.015V339.912H102.819V332.19H154.015V310.639H82.0188V389.496H154.015V367.946Z" fill="#E7393A"/>
<path d="M236.001 366.714H184.806V333.422H236.001V310.639H164.005V389.496H236.001V366.714Z" fill="#E7393A"/>
<path d="M267.016 366.714H245.999V389.496H267.016V366.714Z" fill="#E7393A"/>
<path d="M379.2 435.033V482.671H118.601H107.019L105.529 486.011L86.3524 529.041L68.5821 477.301L20.8385 509.809V375.479H37.9185L47.8137 389.496H72.7114L63.3149 375.479H72.0147V310.646H0.0253906V389.496V550.802L58.0349 511.314L83.8787 586.558L120.033 505.447H400V435.033H379.2ZM20.8257 333.422H51.2208V352.697L20.8257 352.585V333.422Z" fill="#E7393A"/>
</svg>
